<svg width="23" height="25" viewBox="0 0 23 25" fill="none" xmlns="http://www.w3.org/2000/svg">
<path d="M10.2875 2.70674C10.1675 2.38674 10.0875 2.43674 8.1675 0.846742C8.09406 0.797506 8.00472 0.777884 7.91741 0.791821C7.8301 0.805758 7.7513 0.852221 7.69685 0.921873C7.64239 0.991525 7.61632 1.0792 7.62386 1.1673C7.6314 1.25539 7.672 1.33736 7.7375 1.39674C10.1675 3.50674 9.5575 2.67674 9.5175 4.12674C9.53867 5.49778 9.45509 6.86843 9.2675 8.22674C9.19389 8.68963 9.09034 9.14726 8.9575 9.59674C8.89927 9.67432 8.83215 9.74481 8.7575 9.80674C8.7575 9.80674 8.6575 9.80674 8.5975 9.80674C7.62814 9.85652 6.65686 9.85652 5.6875 9.80674C4.39377 9.78949 3.1019 9.7027 1.8175 9.54674C2.3775 7.70674 2.3475 5.29674 2.5275 1.65674C3.7575 1.42674 5.8275 1.17674 6.2975 1.12674C6.37971 1.1095 6.45171 1.06031 6.49766 0.989984C6.54361 0.919657 6.55974 0.83396 6.5425 0.751742C6.52526 0.669525 6.47606 0.597524 6.40574 0.551577C6.33541 0.505631 6.24971 0.489503 6.1675 0.506742C4.4475 0.646742 5.1675 0.576742 2.8275 0.826742C1.4775 1.03674 1.7675 0.646742 1.2375 6.62674C1.14307 7.71104 0.890387 8.77566 0.487496 9.78674C0.440764 9.87229 0.415959 9.96809 0.415297 10.0656C0.414635 10.1631 0.438137 10.2592 0.483703 10.3454C0.529268 10.4315 0.595477 10.5051 0.676411 10.5594C0.757345 10.6138 0.850482 10.6472 0.947496 10.6567C2.52298 10.8613 4.10894 10.9748 5.6975 10.9967C9.3175 10.9367 10.1175 11.6067 10.3575 7.27674C10.3575 3.24674 10.4875 3.09674 10.2875 2.70674Z" fill="#003366"/>
<path d="M22.3375 3.24672C22.3375 2.40672 21.9475 2.38672 20.0575 0.846724C20.0009 0.81013 19.9349 0.790663 19.8675 0.790663C19.8001 0.790663 19.7341 0.81013 19.6775 0.846724C14.4075 0.686724 13.8975 0.786724 13.6775 1.35672C13.4575 1.92672 13.2875 6.41672 12.8775 8.35672C12.5275 10.0067 12.1775 9.95672 12.4075 10.4067C12.4515 10.4953 12.5182 10.5706 12.6007 10.6251C12.6833 10.6795 12.7788 10.7112 12.8775 10.7167C13.8775 10.8167 14.7875 10.9267 15.6975 10.9867C16.6075 11.0467 19.6975 11.0967 20.4075 10.9867C21.8675 10.8267 21.9875 9.90672 22.1775 8.40672C22.3294 6.99873 22.3662 5.5807 22.2875 4.16672C22.2875 3.92672 22.3475 3.55672 22.3375 3.24672ZM21.5275 3.36672C21.5275 3.64672 21.4575 3.94672 21.4475 4.12672C21.4998 5.84185 21.3487 7.55713 20.9975 9.23672C20.991 9.35508 20.958 9.47047 20.9009 9.57434C20.8438 9.6782 20.764 9.76788 20.6675 9.83672C20.4775 9.97672 16.0275 9.77672 15.7875 9.75672C15.1175 9.70672 14.4575 9.63672 13.7875 9.56672C14.3675 7.68672 14.3375 5.24672 14.5175 1.70672C16.2253 1.49038 17.9464 1.39681 19.6675 1.42672L20.8675 2.42672C21.4775 3.01672 21.5575 2.88672 21.5275 3.36672Z" fill="#003366"/>
<path d="M9.01752 15.4168C7.66752 14.3168 7.60752 14.1768 7.33752 14.3268C5.45752 14.2668 2.11752 14.0968 1.52752 14.5568C0.937518 15.0168 1.08752 21.5068 0.0775179 23.2968C0.0285363 23.3826 0.00191514 23.4794 9.95376e-05 23.5783C-0.00171606 23.6771 0.021332 23.7748 0.067127 23.8624C0.112922 23.95 0.179996 24.0247 0.262188 24.0797C0.344379 24.1346 0.439055 24.168 0.537518 24.1768C2.11316 24.3783 3.69914 24.4885 5.28752 24.5068C8.91752 24.4368 9.68752 25.1168 9.94752 20.7968C9.94752 15.5668 10.2875 16.5068 9.01752 15.4168ZM9.16752 16.8768C9.16752 17.1568 9.09752 17.4568 9.08752 17.6368C9.1398 19.3519 8.98875 21.0672 8.63752 22.7468C8.56752 23.0368 8.63752 23.1068 8.30752 23.3468C7.97752 23.5868 3.65752 23.2868 3.42752 23.2668C2.75752 23.2168 2.09752 23.1468 1.42752 23.0768C1.98752 21.2568 1.95752 19.1468 2.15752 15.2168C3.875 14.9973 5.60653 14.9071 7.33752 14.9468L8.53752 15.9468C9.16752 16.5068 9.21752 16.3968 9.16752 16.8768Z" fill="#003366"/>
<path d="M20.9375 15.4168C19.5875 14.3168 19.5375 14.1768 19.2675 14.3268C17.3975 14.2668 14.0375 14.0968 13.4575 14.5568C12.8775 15.0168 13.0475 21.3868 12.0075 23.2968C11.9587 23.3819 11.9319 23.4779 11.9296 23.576C11.9273 23.6741 11.9495 23.7713 11.9941 23.8586C12.0388 23.946 12.1046 24.0209 12.1855 24.0764C12.2664 24.132 12.3599 24.1665 12.4575 24.1768C14.0367 24.3749 15.626 24.4818 17.2175 24.4968C20.8475 24.4268 21.6175 25.1068 21.8675 20.7868C21.8675 15.5668 22.2175 16.5068 20.9375 15.4168ZM21.1675 16.8768C21.1675 17.1568 21.0875 17.4568 21.0875 17.6368C21.1408 19.3524 20.9864 21.0682 20.6275 22.7468C20.6233 22.8656 20.5912 22.9818 20.5339 23.086C20.4766 23.1902 20.3956 23.2795 20.2975 23.3468C20.1175 23.4868 15.6575 23.2868 15.4175 23.2668C14.7575 23.2168 14.0975 23.1468 13.4175 23.0768C13.9875 21.2568 13.9575 19.0768 14.1575 15.2168C15.8716 14.9971 17.5998 14.9068 19.3275 14.9468L20.5275 15.9468C21.0575 16.5068 21.1675 16.3968 21.1675 16.8768Z" fill="#003366"/>
<path fill-rule="evenodd" clip-rule="evenodd" d="M5.56741 4.50686H6.50741C7.99741 4.32686 8.16741 4.38686 8.16741 4.16686C8.16741 3.94686 6.79741 3.77686 6.25741 3.77686H5.25741C3.58741 3.93686 3.60741 3.98686 3.59741 4.11686C3.66741 4.43686 5.23741 4.50686 5.56741 4.50686Z" fill="#343434"/>
<path fill-rule="evenodd" clip-rule="evenodd" d="M5.39752 7.18669H6.33752C7.83752 7.08669 7.98752 7.18669 8.03752 6.92669C8.08752 6.66669 6.67752 6.50669 6.16752 6.50669C5.83454 6.48508 5.50051 6.48508 5.16752 6.50669C3.49752 6.65669 3.52752 6.71669 3.51752 6.83669C3.49752 7.13669 5.07752 7.18669 5.39752 7.18669Z" fill="#343434"/>
<path fill-rule="evenodd" clip-rule="evenodd" d="M5.10744 18.3768H6.04744C7.54744 18.2668 7.69744 18.3768 7.74744 18.1068C7.79744 17.8368 6.37744 17.7168 5.84744 17.7068C5.52744 17.7068 5.20744 17.7068 4.84744 17.7568C3.17744 17.9068 3.20744 17.9668 3.18744 18.0868C3.16744 18.3268 4.78744 18.3768 5.10744 18.3768Z" fill="#343434"/>
<path fill-rule="evenodd" clip-rule="evenodd" d="M4.94758 21.0867H5.87758C7.37758 20.9767 7.53758 21.0367 7.57758 20.8167C7.61758 20.5967 6.21758 20.4267 5.67758 20.4167C5.35758 20.4167 5.03758 20.4167 4.67758 20.4667C3.00758 20.6267 3.02758 20.6767 3.01758 20.8067C3.03758 21.0367 4.61758 21.0867 4.94758 21.0867Z" fill="#343434"/>
<path fill-rule="evenodd" clip-rule="evenodd" d="M16.9276 18.7368C17.2476 18.7368 17.5576 18.7368 17.8676 18.6868C19.3676 18.5868 19.5275 18.6368 19.5675 18.4268C19.6075 18.2168 18.2076 18.0268 17.6676 18.0268C17.3501 18.0233 17.0328 18.04 16.7175 18.0768C15.0375 18.2268 15.0676 18.2868 15.0576 18.4068C15.0276 18.6868 16.6076 18.7368 16.9276 18.7368Z" fill="#343434"/>
<path fill-rule="evenodd" clip-rule="evenodd" d="M16.7676 21.4368C17.0776 21.4368 17.3876 21.4368 17.6976 21.3868C19.1976 21.2868 19.3576 21.3368 19.3976 21.1268C19.4376 20.9168 18.0376 20.7268 17.4976 20.7268C17.1776 20.7268 16.8576 20.7268 16.5476 20.7768C14.8776 20.9268 14.8976 20.9868 14.8876 21.1068C14.8576 21.3868 16.4376 21.4368 16.7676 21.4368Z" fill="#343434"/>
<path fill-rule="evenodd" clip-rule="evenodd" d="M17.3475 4.66683H18.2875C19.7775 4.55683 19.9375 4.61683 19.9875 4.39683C20.0375 4.17683 18.6175 4.00683 18.0775 3.99683C17.7675 3.99683 17.4475 3.99683 17.1275 4.04683C15.4575 4.20683 15.4775 4.25683 15.4675 4.38683C15.4375 4.61683 17.0175 4.66683 17.3475 4.66683Z" fill="#343434"/>
<path fill-rule="evenodd" clip-rule="evenodd" d="M17.1676 7.36674C17.4876 7.36674 17.7976 7.36674 18.1076 7.31674C19.6076 7.20674 19.7576 7.31674 19.8076 7.05674C19.8576 6.79674 18.4376 6.65674 17.9076 6.65674H16.9076C15.2376 6.81674 15.2676 6.86674 15.2576 6.99674C15.2476 7.12674 16.8576 7.36674 17.1676 7.36674Z" fill="#343434"/>
</svg>
