<svg width="120" height="24" viewBox="0 0 120 24" fill="none" xmlns="http://www.w3.org/2000/svg">
<path d="M11.4472 1.32903C11.6517 0.83734 12.3483 0.837341 12.5528 1.32903L15.0336 7.29367C15.1198 7.50096 15.3148 7.64259 15.5385 7.66053L21.9779 8.17677C22.5087 8.21932 22.7239 8.88177 22.3195 9.22821L17.4134 13.4308C17.2429 13.5768 17.1685 13.806 17.2206 14.0244L18.7194 20.3081C18.843 20.8261 18.2795 21.2355 17.825 20.9579L12.3121 17.5906C12.1205 17.4736 11.8795 17.4736 11.6879 17.5906L6.17497 20.9579C5.72051 21.2355 5.157 20.8261 5.28056 20.3081L6.77945 14.0244C6.83154 13.806 6.75708 13.5768 6.58658 13.4308L1.68049 9.22821C1.27606 8.88177 1.4913 8.21932 2.02213 8.17677L8.46146 7.66053C8.68524 7.64259 8.88018 7.50096 8.96639 7.29367L11.4472 1.32903Z" fill="#F4DC00"/>
<path d="M35.4472 1.32903C35.6517 0.83734 36.3483 0.837341 36.5528 1.32903L39.0336 7.29367C39.1198 7.50096 39.3148 7.64259 39.5385 7.66053L45.9779 8.17677C46.5087 8.21932 46.7239 8.88177 46.3195 9.22821L41.4134 13.4308C41.2429 13.5768 41.1685 13.806 41.2206 14.0244L42.7194 20.3081C42.843 20.8261 42.2795 21.2355 41.825 20.9579L36.3121 17.5906C36.1205 17.4736 35.8795 17.4736 35.6879 17.5906L30.175 20.9579C29.7205 21.2355 29.157 20.8261 29.2806 20.3081L30.7794 14.0244C30.8315 13.806 30.7571 13.5768 30.5866 13.4308L25.6805 9.22821C25.2761 8.88177 25.4913 8.21932 26.0221 8.17677L32.4615 7.66053C32.6852 7.64259 32.8802 7.50096 32.9664 7.29367L35.4472 1.32903Z" fill="#F4DC00"/>
<path d="M59.4472 1.32903C59.6517 0.83734 60.3483 0.837341 60.5528 1.32903L63.0336 7.29367C63.1198 7.50096 63.3148 7.64259 63.5385 7.66053L69.9779 8.17677C70.5087 8.21932 70.7239 8.88177 70.3195 9.22821L65.4134 13.4308C65.2429 13.5768 65.1685 13.806 65.2206 14.0244L66.7194 20.3081C66.843 20.8261 66.2795 21.2355 65.825 20.9579L60.3121 17.5906C60.1205 17.4736 59.8795 17.4736 59.6879 17.5906L54.175 20.9579C53.7205 21.2355 53.157 20.8261 53.2806 20.3081L54.7794 14.0244C54.8315 13.806 54.7571 13.5768 54.5866 13.4308L49.6805 9.22821C49.2761 8.88177 49.4913 8.21932 50.0221 8.17677L56.4615 7.66053C56.6852 7.64259 56.8802 7.50096 56.9664 7.29367L59.4472 1.32903Z" fill="#F4DC00"/>
<path d="M83.4472 1.32903C83.6517 0.83734 84.3483 0.837341 84.5528 1.32903L87.0336 7.29367C87.1198 7.50096 87.3148 7.64259 87.5385 7.66053L93.9779 8.17677C94.5087 8.21932 94.7239 8.88177 94.3195 9.22821L89.4134 13.4308C89.2429 13.5768 89.1685 13.806 89.2206 14.0244L90.7194 20.3081C90.843 20.8261 90.2795 21.2355 89.825 20.9579L84.3121 17.5906C84.1205 17.4736 83.8795 17.4736 83.6879 17.5906L78.175 20.9579C77.7205 21.2355 77.157 20.8261 77.2806 20.3081L78.7794 14.0244C78.8315 13.806 78.7571 13.5768 78.5866 13.4308L73.6805 9.22821C73.2761 8.88177 73.4913 8.21932 74.0221 8.17677L80.4615 7.66053C80.6852 7.64259 80.8802 7.50096 80.9664 7.29367L83.4472 1.32903Z" fill="#F4DC00"/>
<path d="M107.447 1.32903C107.652 0.83734 108.348 0.837341 108.553 1.32903L111.034 7.29367C111.12 7.50096 111.315 7.64259 111.539 7.66053L117.978 8.17677C118.509 8.21932 118.724 8.88177 118.32 9.22821L113.413 13.4308C113.243 13.5768 113.168 13.806 113.221 14.0244L114.719 20.3081C114.843 20.8261 114.279 21.2355 113.825 20.9579L108.312 17.5906C108.12 17.4736 107.88 17.4736 107.688 17.5906L102.175 20.9579C101.721 21.2355 101.157 20.8261 101.281 20.3081L102.779 14.0244C102.832 13.806 102.757 13.5768 102.587 13.4308L97.6805 9.22821C97.2761 8.88177 97.4913 8.21932 98.0221 8.17677L104.461 7.66053C104.685 7.64259 104.88 7.50096 104.966 7.29367L107.447 1.32903Z" fill="#F4DC00"/>
</svg>
